<svg width="20" height="20" viewBox="0 0 20 20" fill="none" xmlns="http://www.w3.org/2000/svg">
	<circle cx="10" cy="10" r="10"></circle>
	<path
		d="M14.9028 6.63109C15.2041 6.33451 15.2041 5.85494 14.9028 5.56152C14.6015 5.2681 14.1143 5.26495 13.8163 5.56152L10.0022 9.31603L6.18485 5.55837C5.88356 5.26179 5.39638 5.26179 5.09831 5.55837C4.80023 5.85494 4.79703 6.33451 5.09831 6.62793L8.91241 10.3824L5.0951 14.1401C4.79382 14.4367 4.79382 14.9162 5.0951 15.2097C5.39638 15.5031 5.88356 15.5062 6.18164 15.2097L9.99574 11.4552L13.813 15.2128C14.1143 15.5094 14.6015 15.5094 14.8996 15.2128C15.1977 14.9162 15.2009 14.4367 14.8996 14.1433L11.0855 10.3887L14.9028 6.63109Z"
		fill="#046288"></path>
</svg>
